<svg xmlns="http://www.w3.org/2000/svg" aria-hidden="true" style="position:absolute;width:0;height:0;overflow:hidden">
  <defs>
    <symbol id="icon-down-arrow" viewBox="0 0 64 32">
      <path fill="#fafafb" d="M30.103 27.085 15.018 12l3.771-3.771 13.2 13.2 13.2-13.2L48.96 12 33.875 27.085a2.666 2.666 0 0 1-3.77 0z" style="fill:var(--color1, #fafafb)"/>
    </symbol>
    <symbol id="icon-left-arrow" viewBox="0 0 16 32">
      <path fill="#fafafb" d="M2.457 16.948 10 24.491l1.885-1.885-6.6-6.6 6.6-6.6L10 7.521l-7.543 7.543a1.333 1.333 0 0 0 0 1.886z" style="fill:var(--color1, #fafafb)"/>
    </symbol>
    <symbol id="icon-menu" viewBox="0 0 32 32">
      <path fill="#fafafb" d="M4 8zm0 8zm0 8z" style="fill:var(--color1, #fafafb)"/>
      <path fill="none" stroke="#fafafb" stroke-linecap="round" stroke-width="2.667" d="M4 8h24M4 16h24M4 24h24" style="stroke:var(--color1, #fafafb)"/>
    </symbol>
    <symbol id="icon-right-arrow" viewBox="0 0 16 32">
      <path fill="#fafafb" d="M13.543 16.948 6 24.491l-1.885-1.885 6.6-6.6-6.6-6.6L6 7.521l7.543 7.543a1.333 1.333 0 0 1 0 1.886z" style="fill:var(--color1, #fafafb)"/>
    </symbol>
    <symbol id="icon-close" viewBox="0 0 32 32">
      <path fill="#fff" d="m8.534 25.333-1.867-1.867 7.467-7.467-7.467-7.467 1.867-1.867 7.467 7.467 7.467-7.467 1.867 1.867-7.467 7.467 7.467 7.467-1.867 1.867-7.467-7.467-7.467 7.467z" style="fill:var(--color2, #fff)"/>
    </symbol>
  </defs>
</svg>
